<svg>
    <symbol width="190" height="43" viewBox="0 0 190 43"  xmlns="http://www.w3.org/2000/svg" id="logo">
        <path d="M19.3678 16.9643C20.1137 17.0473 20.4867 17.379 20.4867 17.9595C20.4867 18.1751 20.4332 18.411 20.3264 18.6672C20.2173 18.9251 20.0744 19.1619 19.8978 19.3776C19.5248 19.842 19.0984 20.1571 18.6185 20.3229C18.1365 20.4888 17.5127 20.5883 16.7471 20.6215C15.1964 20.6712 14.0873 20.6961 13.4199 20.6961C11.4961 20.7459 10.1613 20.7873 9.41534 20.8205C7.88419 20.8703 6.53953 21.0361 5.38136 21.3181C4.91024 21.4176 4.58633 21.4673 4.40966 21.4673C4.19373 21.4673 4.02689 21.4093 3.90911 21.2932C3.79132 21.1771 3.73242 20.9698 3.73242 20.6713C3.73242 20.3561 3.8066 20.0281 3.95491 19.6872C4.10105 19.3481 4.33115 18.8883 4.64523 18.3078C4.92005 17.86 5.13598 17.4453 5.29302 17.0639C5.33228 16.9478 5.42606 16.7156 5.57438 16.3673C5.72051 16.019 5.82302 15.7038 5.88191 15.4219C5.90154 15.3389 5.91137 15.2394 5.91137 15.1233C5.91137 15.0238 5.89174 14.9031 5.85248 14.7612C5.81322 14.6212 5.78377 14.4848 5.76414 14.3521C5.74451 14.0867 5.78923 13.8251 5.89829 13.5671C6.00516 13.3109 6.16656 13.017 6.38249 12.6853C6.7162 12.1048 6.9125 11.6901 6.97139 11.4413C7.32473 10.015 7.52102 8.9369 7.56028 8.20713L7.58974 7.4359C7.58974 6.93833 7.53083 6.57344 7.41305 6.34124C7.3149 6.14221 7.13824 5.94319 6.88305 5.74417C6.64748 5.54514 6.49044 5.37927 6.41192 5.24658C6.31377 5.09731 6.26471 4.89829 6.26471 4.64951C6.26471 4.36755 6.34867 4.06441 6.51662 3.74007C6.68238 3.41757 6.89286 3.12363 7.14805 2.85826C7.59954 2.36069 8.13937 2.11191 8.76753 2.11191C9.23865 2.11191 9.71523 2.22801 10.1973 2.46021C10.6771 2.69241 11.2606 3.03241 11.9476 3.48022C12.458 3.81194 12.8408 4.04413 13.096 4.17681C14.0186 4.64121 14.794 4.9978 15.4221 5.24658C16.0503 5.49537 16.7177 5.67782 17.4244 5.79392C17.7581 5.84368 18.0722 5.86855 18.3666 5.86855C18.6807 5.86855 18.9948 5.84368 19.3089 5.79392C19.4267 5.77734 19.6186 5.72296 19.8847 5.63082C20.1486 5.54052 20.3493 5.49537 20.4867 5.49537C20.6241 5.49537 20.7419 5.52854 20.84 5.59488C21.0363 5.71098 21.1345 5.90172 21.1345 6.16709C21.1345 6.43246 21.0418 6.7264 20.8564 7.0489C20.6688 7.37324 20.4769 7.64321 20.2806 7.85883C19.672 8.48908 18.8083 8.87056 17.6894 9.00324C17.3361 9.053 16.9729 9.07788 16.5999 9.07788C15.5988 9.07788 14.6173 8.93229 13.6554 8.64112C12.6935 8.35179 11.5943 7.94176 10.3576 7.41102C10.2398 8.68811 10.0141 10.015 9.68034 11.3916L10.6815 11.1925C11.7219 10.9769 12.5714 10.8148 13.2301 10.706C13.8866 10.5991 14.529 10.5457 15.1571 10.5457C15.4319 10.5457 15.6381 10.554 15.7755 10.5706C16.4625 10.6203 16.806 10.9106 16.806 11.4413C16.806 11.6901 16.733 11.9638 16.5868 12.2623C16.4385 12.5609 16.2564 12.8345 16.0405 13.0833C15.6479 13.5311 15.1669 13.8214 14.5977 13.954C14.0284 14.0867 13.2923 14.1614 12.3893 14.178L11.3881 14.2277C10.6815 14.2941 10.1416 14.3521 9.76866 14.4019C9.39569 14.435 9.16559 14.4719 9.07835 14.5124C8.98892 14.5548 8.91041 14.6341 8.84279 14.7502C8.773 14.8663 8.69882 14.9741 8.6203 15.0736C8.48289 15.2726 8.3553 15.5297 8.23752 15.8448C8.11974 16.1599 8.0216 16.4751 7.94308 16.7902C7.8253 17.2546 7.72715 17.5863 7.64863 17.7853C8.74791 17.5697 10.3532 17.3661 12.4645 17.1744C14.5737 16.9846 16.3545 16.8897 17.8072 16.8897C18.4353 16.8897 18.9555 16.9146 19.3678 16.9643ZM32.4119 9.99837C32.039 9.733 31.3966 9.38011 30.4849 8.93967C29.571 8.50107 28.8687 8.28177 28.3779 8.28177C27.9853 8.28177 27.789 8.44762 27.789 8.77933C27.789 8.89543 27.8381 9.09445 27.9363 9.37641C28.0737 9.75788 28.3779 10.1182 28.8491 10.4573C29.3202 10.7982 29.9385 11.1925 30.7041 11.6404C31.3323 12.0052 31.7347 12.254 31.9113 12.3867C32.7751 13.017 33.4621 13.5431 33.9725 13.9651C34.4829 14.389 34.9496 14.8865 35.3728 15.4578C35.7937 16.0309 36.0042 16.6161 36.0042 17.2131C36.0042 17.6112 35.8864 18.0258 35.6509 18.4571C35.1994 19.2366 34.4589 19.8337 33.4294 20.2483C32.3977 20.6629 31.3028 20.8703 30.1447 20.8703C29.7521 20.8703 29.3594 20.8454 28.9668 20.7956C26.2972 20.4142 23.8336 18.9132 21.5761 16.2926C21.4584 16.1434 21.3995 15.9941 21.3995 15.8448C21.3995 15.4799 21.6896 15.1436 22.2697 14.8359C22.8477 14.5299 23.4214 14.377 23.9906 14.377C24.4225 14.377 24.7366 14.4848 24.9329 14.7004C26.1499 16.0936 27.3474 17.1136 28.5252 17.7605C29.6048 18.3575 30.5176 18.6561 31.2636 18.6561C31.8721 18.6561 32.1764 18.4322 32.1764 17.9844C32.1764 17.6692 32.0291 17.2795 31.7347 16.8151C31.4402 16.3673 31.0574 15.9443 30.5863 15.5463C30.1152 15.1482 29.5165 14.6921 28.7902 14.178L27.9952 13.6057C27.9166 13.5394 27.5535 13.2989 26.9057 12.8843C26.3757 12.5526 25.9242 12.2457 25.5512 11.9638C25.1782 11.6818 24.8642 11.375 24.609 11.0433C24.2753 10.5955 24.1084 10.1311 24.1084 9.65007C24.1084 8.90372 24.4868 8.2191 25.2437 7.59622C25.9983 6.97518 26.8664 6.54856 27.8479 6.31636C28.4761 6.16709 29.0748 6.09245 29.6441 6.09245C30.7041 6.09245 31.7303 6.29977 32.7227 6.71441C33.713 7.12905 34.7184 7.70126 35.7392 8.43103C35.9159 8.54713 36.0042 8.68812 36.0042 8.85398C36.0042 9.1691 35.7 9.47593 35.0914 9.77447C34.4829 10.073 33.8842 10.2223 33.2953 10.2223C32.9027 10.2223 32.6082 10.1476 32.4119 9.99837ZM47.9 9.99837C47.527 9.733 46.8847 9.38011 45.973 8.93967C45.0591 8.50107 44.3568 8.28177 43.8661 8.28177C43.4735 8.28177 43.2772 8.44762 43.2772 8.77933C43.2772 8.89543 43.3262 9.09445 43.4244 9.37641C43.5618 9.75788 43.8661 10.1182 44.3372 10.4573C44.8083 10.7982 45.4266 11.1925 46.1922 11.6404C46.8204 12.0052 47.2228 12.254 47.3995 12.3867C48.2632 13.017 48.9502 13.5431 49.4606 13.9651C49.971 14.389 50.4378 14.8865 50.8609 15.4578C51.2819 16.0309 51.4923 16.6161 51.4923 17.2131C51.4923 17.6112 51.3745 18.0258 51.139 18.4571C50.6875 19.2366 49.947 19.8337 48.9175 20.2483C47.8859 20.6629 46.7909 20.8703 45.6327 20.8703C45.2401 20.8703 44.8476 20.8454 44.455 20.7956C41.7853 20.4142 39.3217 18.9132 37.0642 16.2926C36.9465 16.1434 36.8876 15.9941 36.8876 15.8448C36.8876 15.4799 37.1777 15.1436 37.7578 14.8359C38.3358 14.5299 38.9095 14.377 39.4787 14.377C39.9106 14.377 40.2247 14.4848 40.421 14.7004C41.638 16.0936 42.8355 17.1136 44.0133 17.7605C45.0929 18.3575 46.0057 18.6561 46.7517 18.6561C47.3602 18.6561 47.6645 18.4322 47.6645 17.9844C47.6645 17.6692 47.5172 17.2795 47.2228 16.8151C46.9283 16.3673 46.5456 15.9443 46.0744 15.5463C45.6033 15.1482 45.0046 14.6921 44.2783 14.178L43.4833 13.6057C43.4047 13.5394 43.0416 13.2989 42.3938 12.8843C41.8638 12.5526 41.4123 12.2457 41.0393 11.9638C40.6664 11.6818 40.3523 11.375 40.0971 11.0433C39.7634 10.5955 39.5965 10.1311 39.5965 9.65007C39.5965 8.90372 39.9749 8.2191 40.7318 7.59622C41.4865 6.97518 42.3545 6.54856 43.336 6.31636C43.9642 6.16709 44.5629 6.09245 45.1322 6.09245C46.1922 6.09245 47.2184 6.29977 48.2108 6.71441C49.2011 7.12905 50.2066 7.70126 51.2273 8.43103C51.404 8.54713 51.4923 8.68812 51.4923 8.85398C51.4923 9.1691 51.188 9.47593 50.5795 9.77447C49.971 10.073 49.3723 10.2223 48.7834 10.2223C48.3908 10.2223 48.0963 10.1476 47.9 9.99837ZM64.7132 18.2332C65.0076 18.3161 65.1548 18.4654 65.1548 18.681C65.1548 18.9463 64.9683 19.2366 64.5954 19.5517C64.1831 19.9 63.6531 20.0742 63.0053 20.0742C62.6913 20.0742 62.4263 20.041 62.2103 19.9746C61.1699 19.6927 60.2277 19.5517 59.3836 19.5517C57.9113 19.5517 56.4096 19.9498 54.8785 20.7459C54.6233 20.8951 54.3147 21.0149 53.9526 21.1052C53.5884 21.1974 53.2492 21.2434 52.9351 21.2434C52.6407 21.2434 52.4051 21.1974 52.2285 21.1052C52.0518 21.0149 51.9634 20.8703 51.9634 20.6713C51.9634 20.5552 51.9831 20.4556 52.0223 20.3727C52.5916 19.0293 53.0475 17.8185 53.3899 16.7404C53.7345 15.6624 53.9657 14.5677 54.0835 13.4565C54.2602 11.9638 54.3485 10.8691 54.3485 10.1725C54.3485 8.33152 53.9264 6.92174 53.0824 5.94319C52.9842 5.84367 52.9351 5.71099 52.9351 5.54513C52.9351 5.21342 53.21 4.90197 53.7596 4.6108C54.3092 4.32148 54.8491 4.17681 55.3791 4.17681C55.7324 4.17681 55.9876 4.24316 56.1446 4.37585C56.3998 4.45878 56.5667 4.59146 56.6452 4.7739C57.136 5.86856 57.8132 6.79274 58.6769 7.54646C59.5406 8.30203 60.5614 8.67982 61.7392 8.67982C61.9551 8.67982 62.279 8.64664 62.7109 8.5803C62.9857 8.54713 63.1624 8.53054 63.2409 8.53054C63.5746 8.53054 63.8254 8.59229 63.9934 8.71576C64.1591 8.84108 64.242 9.01153 64.242 9.22715C64.242 9.45934 64.1297 9.69155 63.9051 9.92375C63.6782 10.1559 63.3783 10.3218 63.0053 10.4213C62.2005 10.6535 61.3957 10.7696 60.5909 10.7696C59.629 10.7696 58.7064 10.6037 57.823 10.272C57.7837 11.2008 57.7347 11.8974 57.6758 12.3618L57.4697 13.9292C58.2352 13.8131 59.0008 13.7136 59.7664 13.6306L60.1786 13.6057C60.9638 13.6057 61.3564 13.8297 61.3564 14.2775C61.3564 14.576 61.1601 14.8414 60.7675 15.0736C60.3749 15.3058 59.9725 15.4551 59.5603 15.5214C58.9517 15.6209 58.1175 15.7287 57.0574 15.8448C56.8415 16.6575 56.6059 17.4204 56.3508 18.1336C57.6463 17.7356 58.9615 17.5366 60.2964 17.5366C61.7686 17.5366 63.2409 17.7688 64.7132 18.2332ZM77.4629 6.66742C76.9918 9.68601 76.7562 12.5305 76.7562 15.2007C76.7562 16.4944 76.8151 17.8047 76.9329 19.1315C76.9721 19.2311 76.9918 19.314 76.9918 19.3803C76.9918 19.4301 76.9721 19.5047 76.9329 19.6042C76.9329 19.6208 76.9285 19.6291 76.9198 19.6291H76.9034V19.6789C76.7856 19.9608 76.5108 20.205 76.0789 20.4114C75.6471 20.6196 75.1858 20.7404 74.695 20.7735C73.9098 20.8399 73.4387 20.6657 73.2817 20.2511C72.5946 18.692 71.5051 16.5359 70.0133 13.7827L69.6599 13.0861C69.5029 15.1593 69.4047 17.3735 69.3655 19.7286C69.3655 20.0769 69.0907 20.3874 68.541 20.6602C67.9914 20.9348 67.4319 21.0721 66.8626 21.0721C66.5093 21.0721 66.2247 21.014 66.0087 20.8979C65.7928 20.7818 65.6947 20.5911 65.7143 20.3257C65.8321 15.8144 66.2149 11.5436 66.8626 7.51329L66.8921 7.41378C66.8528 7.0489 67.1178 6.71717 67.6871 6.41863C68.2564 6.12009 68.8256 5.97082 69.3949 5.97082C69.9838 5.97082 70.347 6.13669 70.4844 6.46841C71.1125 7.91136 72.045 9.76894 73.2817 12.0412C73.3994 10.4821 73.6056 8.89819 73.9 7.28939C73.9589 6.95767 74.273 6.66281 74.8423 6.40482C75.4115 6.14866 75.971 6.02059 76.5206 6.02059C77.2273 6.02059 77.5414 6.2362 77.4629 6.66742ZM88.7992 9.99837C88.4262 9.733 87.7839 9.38011 86.8722 8.93967C85.9583 8.50107 85.256 8.28177 84.7653 8.28177C84.3727 8.28177 84.1763 8.44762 84.1763 8.77933C84.1763 8.89543 84.2254 9.09445 84.3236 9.37641C84.461 9.75788 84.7653 10.1182 85.2364 10.4573C85.7075 10.7982 86.3258 11.1925 87.0914 11.6404C87.7196 12.0052 88.122 12.254 88.2987 12.3867C89.1624 13.017 89.8494 13.5431 90.3598 13.9651C90.8702 14.389 91.337 14.8865 91.7601 15.4578C92.181 16.0309 92.3915 16.6161 92.3915 17.2131C92.3915 17.6112 92.2737 18.0258 92.0382 18.4571C91.5867 19.2366 90.8462 19.8337 89.8167 20.2483C88.785 20.6629 87.6901 20.8703 86.5319 20.8703C86.1393 20.8703 85.7467 20.8454 85.3541 20.7956C82.6845 20.4142 80.2209 18.9132 77.9634 16.2926C77.8456 16.1434 77.7868 15.9941 77.7868 15.8448C77.7868 15.4799 78.0768 15.1436 78.657 14.8359C79.235 14.5299 79.8087 14.377 80.3779 14.377C80.8098 14.377 81.1239 14.4848 81.3202 14.7004C82.5372 16.0936 83.7347 17.1136 84.9125 17.7605C85.9921 18.3575 86.9049 18.6561 87.6509 18.6561C88.2594 18.6561 88.5637 18.4322 88.5637 17.9844C88.5637 17.6692 88.4164 17.2795 88.122 16.8151C87.8275 16.3673 87.4448 15.9443 86.9736 15.5463C86.5025 15.1482 85.9038 14.6921 85.1775 14.178L84.3825 13.6057C84.3039 13.5394 83.9408 13.2989 83.293 12.8843C82.763 12.5526 82.3115 12.2457 81.9385 11.9638C81.5656 11.6818 81.2515 11.375 80.9963 11.0433C80.6626 10.5955 80.4957 10.1311 80.4957 9.65007C80.4957 8.90372 80.8741 8.2191 81.631 7.59622C82.3856 6.97518 83.2537 6.54856 84.2352 6.31636C84.8634 6.16709 85.4621 6.09245 86.0314 6.09245C87.0914 6.09245 88.1176 6.29977 89.11 6.71441C90.1003 7.12905 91.1058 7.70126 92.1265 8.43103C92.3032 8.54713 92.3915 8.68812 92.3915 8.85398C92.3915 9.1691 92.0872 9.47593 91.4787 9.77447C90.8702 10.073 90.2715 10.2223 89.6826 10.2223C89.29 10.2223 88.9955 10.1476 88.7992 9.99837ZM105.612 18.2332C105.907 18.3161 106.054 18.4654 106.054 18.681C106.054 18.9463 105.868 19.2366 105.495 19.5517C105.082 19.9 104.552 20.0742 103.905 20.0742C103.59 20.0742 103.325 20.041 103.11 19.9746C102.069 19.6927 101.127 19.5517 100.283 19.5517C98.8105 19.5517 97.3088 19.9498 95.7777 20.7459C95.5225 20.8951 95.2139 21.0149 94.8518 21.1052C94.4876 21.1974 94.1484 21.2434 93.8343 21.2434C93.5399 21.2434 93.3043 21.1974 93.1276 21.1052C92.951 21.0149 92.8626 20.8703 92.8626 20.6713C92.8626 20.5552 92.8823 20.4556 92.9215 20.3727C93.4908 19.0293 93.9466 17.8185 94.2891 16.7404C94.6337 15.6624 94.8649 14.5677 94.9827 13.4565C95.1593 11.9638 95.2477 10.8691 95.2477 10.1725C95.2477 8.33152 94.8256 6.92174 93.9816 5.94319C93.8834 5.84367 93.8343 5.71099 93.8343 5.54513C93.8343 5.21342 94.1091 4.90197 94.6588 4.6108C95.2084 4.32148 95.7483 4.17681 96.2783 4.17681C96.6316 4.17681 96.8868 4.24316 97.0438 4.37585C97.299 4.45878 97.4659 4.59146 97.5444 4.7739C98.0352 5.86856 98.7124 6.79274 99.5761 7.54646C100.44 8.30203 101.461 8.67982 102.638 8.67982C102.854 8.67982 103.178 8.64664 103.61 8.5803C103.885 8.54713 104.062 8.53054 104.14 8.53054C104.474 8.53054 104.725 8.59229 104.893 8.71576C105.058 8.84108 105.141 9.01153 105.141 9.22715C105.141 9.45934 105.029 9.69155 104.804 9.92375C104.577 10.1559 104.277 10.3218 103.905 10.4213C103.1 10.6535 102.295 10.7696 101.49 10.7696C100.528 10.7696 99.6056 10.6037 98.7222 10.272C98.6829 11.2008 98.6339 11.8974 98.575 12.3618L98.3689 13.9292C99.1344 13.8131 99.9 13.7136 100.666 13.6306L101.078 13.6057C101.863 13.6057 102.256 13.8297 102.256 14.2775C102.256 14.576 102.059 14.8414 101.667 15.0736C101.274 15.3058 100.872 15.4551 100.459 15.5214C99.8509 15.6209 99.0167 15.7287 97.9566 15.8448C97.7407 16.6575 97.5051 17.4204 97.2499 18.1336C98.5455 17.7356 99.8608 17.5366 101.196 17.5366C102.668 17.5366 104.14 17.7688 105.612 18.2332ZM129.993 9.47594L130.17 9.45105C130.464 9.45105 130.7 9.54227 130.876 9.72471C131.073 9.90715 131.171 10.1642 131.171 10.4959C131.171 10.6618 131.131 10.8774 131.053 11.1428C130.955 11.5408 130.768 11.9094 130.493 12.2485C130.219 12.5894 129.895 12.8594 129.522 13.0584C129.286 13.1745 129.051 13.2529 128.815 13.2934C128.579 13.3358 128.285 13.3736 127.932 13.4067L127.726 13.4316H127.637L127.726 15.3224C127.883 15.2892 127.991 15.2726 128.049 15.2726C128.148 15.2726 128.256 15.2892 128.373 15.3224C128.707 15.3721 128.943 15.5214 129.08 15.7702C129.198 15.9526 129.257 16.1765 129.257 16.4419C129.257 16.5912 129.237 16.7819 129.198 17.0141C129.178 17.0639 129.168 17.1302 129.168 17.2131C129.09 17.8102 128.957 18.3492 128.769 18.8302C128.584 19.3112 128.305 19.759 127.932 20.1737C127.068 21.0693 126.244 21.5171 125.458 21.5171C125.321 21.5171 125.213 21.5088 125.134 21.4922C124.683 21.4093 124.373 21.2103 124.205 20.8952C124.04 20.58 123.927 20.2234 123.868 19.8254C123.711 18.8136 123.633 17.6692 123.633 16.3921L123.662 14.4267V14.2277L123.692 13.8297L122.543 14.0038C121.954 14.1199 121.424 14.2443 120.953 14.377L120.718 14.4765C120.482 15.7868 120.335 16.7902 120.276 17.4868C120.237 17.7522 120.217 18.1502 120.217 18.681C120.237 18.7473 120.247 18.8634 120.247 19.0293C120.247 19.1785 120.237 19.2946 120.217 19.3776C120.217 19.6927 120.113 19.9866 119.906 20.2594C119.701 20.5339 119.432 20.7376 119.098 20.8703C118.843 20.9698 118.568 21.0195 118.274 21.0195C117.744 21.0195 117.292 20.8703 116.919 20.5717C116.487 20.2234 116.271 19.759 116.271 19.1785L116.301 18.8054C116.36 17.9429 116.472 17.0841 116.638 16.2291C116.806 15.3758 117.037 14.3521 117.331 13.1579C117.567 12.0965 117.734 11.3004 117.832 10.7696C118.107 9.35984 118.303 8.07444 118.421 6.91345C118.499 6.18368 118.549 5.51195 118.568 4.89828V4.79877C118.588 4.45047 118.631 4.16023 118.699 3.92804C118.769 3.69584 118.922 3.48022 119.157 3.28119C119.491 2.99923 119.903 2.85826 120.394 2.85826C120.904 2.85826 121.326 2.99923 121.66 3.28119C121.994 3.56314 122.16 3.9612 122.16 4.47536C122.16 4.74073 122.151 4.93146 122.131 5.04756L122.102 5.17196L121.925 7.01296C121.866 7.99151 121.768 8.86226 121.63 9.6252C121.591 9.95692 121.513 10.3881 121.395 10.9189C121.67 10.836 122.131 10.7199 122.779 10.5706L122.955 10.5208C123.25 10.4711 123.505 10.413 123.721 10.3467C123.721 9.16909 123.711 8.29006 123.692 7.70956V7.65981C123.692 6.18368 123.711 5.08073 123.751 4.35096C123.809 3.22314 124.31 2.37727 125.252 1.81336C125.586 1.61433 125.929 1.51481 126.283 1.51481C126.597 1.51481 126.862 1.60603 127.078 1.78847C127.313 2.03726 127.431 2.36068 127.431 2.75874C127.431 2.92459 127.411 3.14021 127.372 3.40558C127.353 3.47193 127.343 3.56314 127.343 3.67924C127.323 3.86169 127.313 4.15194 127.313 4.55C127.313 4.84854 127.333 5.31293 127.372 5.94319L127.402 6.63979L127.431 7.65981L127.519 9.7496L129.787 9.50081L129.993 9.47594ZM140.24 15.5463C140.691 14.6506 140.917 13.7301 140.917 12.7848C140.917 12.0384 140.764 11.3538 140.459 10.7309C140.156 10.1099 139.68 9.60032 139.032 9.20226C138.601 8.93689 138.188 8.8042 137.796 8.8042C137.639 8.8042 137.442 8.83739 137.207 8.90373C137.384 8.97007 137.472 9.08616 137.472 9.25201C137.472 9.35153 137.433 9.46763 137.354 9.60032C136.903 10.3301 136.549 11.1216 136.294 11.9748C136.039 12.8299 135.911 13.6887 135.911 14.5511C135.911 15.5463 136.088 16.4917 136.441 17.3873C136.677 17.8849 136.922 18.2746 137.177 18.5566C137.295 18.6727 137.413 18.7556 137.531 18.8054C138.1 18.4737 138.616 18.0092 139.078 17.4122C139.539 16.8151 139.926 16.1931 140.24 15.5463ZM139.828 6.81394C140.789 6.9798 141.614 7.33639 142.301 7.88371C142.988 8.43104 143.508 9.08985 143.861 9.86016C144.215 10.6323 144.391 11.433 144.391 12.2623C144.391 13.2409 144.166 14.2443 143.714 15.2726C143.263 16.3009 142.644 17.2463 141.859 18.1088C141.074 18.9712 140.2 19.6512 139.239 20.1488C138.336 20.6132 137.452 20.8454 136.589 20.8454C135.725 20.8454 134.969 20.6215 134.321 20.1737C133.674 19.7259 133.202 19.079 132.908 18.2332C132.574 17.3707 132.407 16.4004 132.407 15.3224C132.407 14.6755 132.466 14.0453 132.584 13.4316C132.447 13.4648 132.24 13.4814 131.966 13.4814C131.298 13.4814 130.965 13.2906 130.965 12.9092C130.965 12.7765 130.984 12.6687 131.023 12.5857C131.691 11.0101 132.696 9.63718 134.04 8.46697C135.386 7.2986 136.932 6.71441 138.679 6.71441C138.934 6.71441 139.317 6.7476 139.828 6.81394ZM154.226 7.48842C154.246 7.15671 154.525 6.86185 155.064 6.60385C155.605 6.3477 156.15 6.21961 156.7 6.21961C157.014 6.21961 157.269 6.27306 157.465 6.37995C157.661 6.48867 157.75 6.65913 157.73 6.89133C157.691 7.52158 157.671 8.02744 157.671 8.40891C157.573 10.565 157.401 12.3978 157.154 13.9071C156.91 15.4164 156.366 16.8344 155.522 18.1613C154.678 19.4881 153.421 20.3589 151.753 20.7735C151.183 20.9062 150.644 20.9725 150.133 20.9725C148.877 20.9725 147.772 20.6574 146.819 20.0272C145.868 19.3969 145.324 18.5427 145.187 17.4647C145.147 17.0335 145.128 16.71 145.128 16.4944C145.128 15.35 145.334 14.1807 145.746 12.9866C146.158 11.7924 146.757 10.3494 147.542 8.65771C147.778 8.20989 148.043 7.63768 148.337 6.94109C148.455 6.65913 148.754 6.42232 149.234 6.23066C149.716 6.04085 150.192 5.94595 150.663 5.94595C150.977 5.94595 151.233 5.9994 151.429 6.10629C151.625 6.21501 151.723 6.36889 151.723 6.56791C151.723 6.63426 151.704 6.73378 151.664 6.86646C151.272 7.82843 150.968 8.54989 150.752 9.03088C150.182 10.3743 149.741 11.4975 149.427 12.4005C149.113 13.3054 148.897 14.2305 148.779 15.1759C148.74 15.5739 148.72 15.889 148.72 16.1212C148.72 17.0998 149.005 17.8047 149.574 18.2359C149.751 18.3852 149.986 18.5216 150.28 18.645C150.575 18.7703 150.85 18.8413 151.105 18.8579L151.341 18.9076C151.36 18.9076 151.399 18.8828 151.458 18.833C151.949 18.5676 152.346 18.1152 152.649 17.4757C152.955 16.8381 153.156 16.2705 153.254 15.7729C153.353 15.2754 153.49 14.4876 153.667 13.4095C153.804 12.5305 153.916 11.5685 154.004 10.5236C154.093 9.4787 154.167 8.46698 154.226 7.48842ZM168.124 9.99837C167.751 9.733 167.108 9.38011 166.194 8.93967C165.282 8.50107 164.581 8.28177 164.09 8.28177C163.698 8.28177 163.501 8.44762 163.501 8.77933C163.501 8.89543 163.55 9.09445 163.649 9.37641C163.786 9.75788 164.09 10.1182 164.561 10.4573C165.032 10.7982 165.651 11.1925 166.416 11.6404C167.045 12.0052 167.447 12.254 167.624 12.3867C168.487 13.017 169.174 13.5431 169.685 13.9651C170.195 14.389 170.661 14.8865 171.082 15.4578C171.505 16.0309 171.717 16.6161 171.717 17.2131C171.717 17.6112 171.599 18.0258 171.363 18.4571C170.912 19.2366 170.17 19.8337 169.138 20.2483C168.109 20.6629 167.015 20.8703 165.857 20.8703C165.464 20.8703 165.072 20.8454 164.679 20.7956C162.009 20.4142 159.546 18.9132 157.288 16.2926C157.171 16.1434 157.112 15.9941 157.112 15.8448C157.112 15.4799 157.401 15.1436 157.979 14.8359C158.559 14.5299 159.134 14.377 159.703 14.377C160.135 14.377 160.449 14.4848 160.645 14.7004C161.862 16.0936 163.06 17.1136 164.237 17.7605C165.317 18.3575 166.23 18.6561 166.976 18.6561C167.584 18.6561 167.889 18.4322 167.889 17.9844C167.889 17.6692 167.741 17.2795 167.447 16.8151C167.153 16.3673 166.77 15.9443 166.299 15.5463C165.828 15.1482 165.229 14.6921 164.502 14.178L163.707 13.6057C163.629 13.5394 163.266 13.2989 162.618 12.8843C162.088 12.5526 161.636 12.2457 161.264 11.9638C160.891 11.6818 160.576 11.375 160.321 11.0433C159.988 10.5955 159.821 10.1311 159.821 9.65007C159.821 8.90372 160.198 8.2191 160.953 7.59622C161.71 6.97518 162.579 6.54856 163.56 6.31636C164.188 6.16709 164.787 6.09245 165.356 6.09245C166.416 6.09245 167.442 6.29977 168.432 6.71441C169.424 7.12905 170.431 7.70126 171.452 8.43103C171.628 8.54713 171.717 8.68812 171.717 8.85398C171.717 9.1691 171.412 9.47593 170.804 9.77447C170.195 10.073 169.596 10.2223 169.008 10.2223C168.615 10.2223 168.321 10.1476 168.124 9.99837ZM184.937 18.2332C185.232 18.3161 185.379 18.4654 185.379 18.681C185.379 18.9463 185.193 19.2366 184.82 19.5517C184.407 19.9 183.877 20.0742 183.23 20.0742C182.915 20.0742 182.65 20.041 182.435 19.9746C181.394 19.6927 180.452 19.5517 179.608 19.5517C178.136 19.5517 176.634 19.9498 175.103 20.7459C174.847 20.8951 174.538 21.0149 174.174 21.1052C173.811 21.1974 173.473 21.2434 173.159 21.2434C172.865 21.2434 172.629 21.1974 172.453 21.1052C172.276 21.0149 172.188 20.8703 172.188 20.6713C172.188 20.5552 172.207 20.4556 172.247 20.3727C172.816 19.0293 173.272 17.8185 173.614 16.7404C173.959 15.6624 174.19 14.5677 174.308 13.4565C174.484 11.9638 174.573 10.8691 174.573 10.1725C174.573 8.33152 174.151 6.92174 173.307 5.94319C173.208 5.84367 173.159 5.71099 173.159 5.54513C173.159 5.21342 173.434 4.90197 173.984 4.6108C174.533 4.32148 175.073 4.17681 175.603 4.17681C175.957 4.17681 176.212 4.24316 176.369 4.37585C176.624 4.45878 176.791 4.59146 176.869 4.7739C177.36 5.86856 178.037 6.79274 178.901 7.54646C179.765 8.30203 180.786 8.67982 181.963 8.67982C182.179 8.67982 182.503 8.64664 182.935 8.5803C183.21 8.54713 183.387 8.53054 183.465 8.53054C183.799 8.53054 184.049 8.59229 184.214 8.71576C184.382 8.84108 184.466 9.01153 184.466 9.22715C184.466 9.45934 184.353 9.69155 184.126 9.92375C183.901 10.1559 183.603 10.3218 183.23 10.4213C182.425 10.6535 181.62 10.7696 180.815 10.7696C179.853 10.7696 178.931 10.6037 178.047 10.272C178.008 11.2008 177.959 11.8974 177.9 12.3618L177.694 13.9292C178.459 13.8131 179.225 13.7136 179.991 13.6306L180.403 13.6057C181.188 13.6057 181.581 13.8297 181.581 14.2775C181.581 14.576 181.384 14.8414 180.992 15.0736C180.599 15.3058 180.197 15.4551 179.784 15.5214C179.176 15.6209 178.342 15.7287 177.282 15.8448C177.066 16.6575 176.83 17.4204 176.575 18.1336C177.871 17.7356 179.186 17.5366 180.521 17.5366C181.993 17.5366 183.465 17.7688 184.937 18.2332Z" fill="currentColor"/>
    </symbol>

    <symbol width="41" height="42" viewBox="0 0 41 42" fill="none" xmlns="http://www.w3.org/2000/svg" id="reviews-icon">
        <path opacity="0.1" d="M8.00037 11L8.00003 39.5857C8.00002 40.4767 9.07717 40.9228 9.70713 40.2929L14.1213 35.8787C14.6839 35.3161 15.447 35 16.2426 35H38C39.6569 35 41 33.6569 41 32V11C41 9.34315 39.6569 8 38 8H11.0004C9.34353 8 8.00039 9.34313 8.00037 11Z" class="fill-theme-svg" fill="currentColor"></path>
        <path d="M1.00034 5.99994L1.00001 32.7929C1.00001 33.2383 1.53858 33.4614 1.85357 33.1464L7.70711 27.2929C7.89464 27.1054 8.149 27 8.41421 27H28C30.7614 27 33 24.7614 33 22V6C33 3.23858 30.7614 1 28 1H6.00034C3.23894 1 1.00037 3.23854 1.00034 5.99994Z" stroke-width="2" stroke-linejoin="round" fill="currentColor"></path>
        <path d="M9 16.4924V17C9 18.1046 9.89543 19 11 19H13C14.1046 19 15 18.1046 15 17V14.9474V9.41588C15 9.18619 14.8138 9 14.5841 9C14.4669 9 14.3551 9.0495 14.2762 9.13632L10.0386 13.8035C9.37025 14.5396 9 15.4982 9 16.4924Z" stroke-width="2" stroke-linejoin="round" fill="white"  ></path>
        <path d="M19 16.4924V17C19 18.1046 19.8954 19 21 19H23C24.1046 19 25 18.1046 25 17V14.9474V9.41588C25 9.18619 24.8138 9 24.5841 9C24.4669 9 24.3551 9.0495 24.2762 9.13632L20.0386 13.8035C19.3703 14.5396 19 15.4982 19 16.4924Z" stroke-width="2" stroke-linejoin="round" fill="white"></path>
    </symbol>
    

    <symbol width="40" height="40" viewBox="0 0 40 40" fill="none" xmlns="http://www.w3.org/2000/svg" id="square-icon">
        <path fill-rule="evenodd" clip-rule="evenodd" d="M37.853 3.21865C37.435 2.22388 36.2023 1.72093 35.1685 2.30246L23.4903 8.87147C23.0089 9.14223 22.3992 8.97151 22.1284 8.49015C21.8577 8.0088 22.0284 7.39908 22.5097 7.12832L34.188 0.559305C36.7877 -0.903058 40 0.975627 40 3.95845V22.3199V27.9484C40 32.1166 35.2713 34.5246 31.9003 32.073L27.4118 28.8086C27.1313 28.6046 26.9765 28.2698 27.0029 27.9239C27.0293 27.578 27.233 27.2705 27.5412 27.1114L34 23.7763V9.80656C34 9.25427 34.4477 8.80656 35 8.80656C35.5523 8.80656 36 9.25427 36 9.80656V22.7435L38 21.7108V5.44284L25.9997 12.3661C25.5213 12.6421 24.9098 12.478 24.6338 11.9996C24.3578 11.5212 24.5219 10.9097 25.0003 10.6337L37.853 3.21865ZM38 23.9617L29.8992 28.1446L33.0767 30.4555C35.1257 31.9457 38 30.482 38 27.9484V23.9617ZM9 9.99989C9 8.89532 9.89543 7.99989 11 7.99989H17.3373C18.7164 7.99989 19.9983 8.71037 20.7292 9.8799L24.392 15.7403C24.7893 16.376 25 17.1106 25 17.8603V20.9999V23.9999C25 25.8637 23.7252 27.4298 22 27.8739V29.9999H24C26.7614 29.9999 29 32.2385 29 34.9999C29 37.7613 26.7614 39.9999 24 39.9999H5C2.23858 39.9999 0 37.7613 0 34.9999C0 32.2385 2.23858 29.9999 5 29.9999H6V27.9999H4C1.79086 27.9999 0 26.209 0 23.9999V19.9999C0 17.7908 1.79086 15.9999 4 15.9999H9V9.99989ZM9.10002 17.9999H4C2.89543 17.9999 2 18.8953 2 19.9999V23.9999C2 25.1045 2.89543 25.9999 4 25.9999H7H21C22.1046 25.9999 23 25.1045 23 23.9999V21.9999H14C11.581 21.9999 9.56329 20.2821 9.10002 17.9999ZM8 27.9999V29.9999H20V27.9999H8ZM17.3373 9.99989H11V16.9999C11 18.6567 12.3431 19.9999 14 19.9999H23V17.8603C23 17.4854 22.8947 17.1181 22.696 16.8003L19.0333 10.9399C18.6678 10.3551 18.0268 9.99989 17.3373 9.99989ZM5 31.9999C3.34315 31.9999 2 33.343 2 34.9999C2 36.6567 3.34315 37.9999 5 37.9999H24C25.6569 37.9999 27 36.6567 27 34.9999C27 33.343 25.6569 31.9999 24 31.9999H7H5Z" fill="#331958"></path>
        <circle cx="7" cy="35" r="1" fill="#509600"></circle>
        <circle cx="12" cy="35" r="1" fill="#509600"></circle>
        <circle cx="17" cy="35" r="1" fill="#509600"></circle>
        <circle cx="22" cy="35" r="1" fill="#509600"></circle>
        <path opacity="0.15" d="M39 25L30.5 29.5L32.5 31.5L35.5 32L39 29V25Z" fill="#331958"></path>
        <rect opacity="0.15" x="1" y="32" width="24" height="4" rx="2" fill="#331958"></rect>
        <path opacity="0.15" d="M13 15C13 13.3431 14.3431 12 16 12H20L23 16V20H13V15Z" fill="#331958"></path>
        <rect opacity="0.15" x="8" y="28" width="12" height="2" fill="#331958"></rect>
    </symbol>

    <symbol width="40" height="40" viewBox="0 0 40 40" fill="none" xmlns="http://www.w3.org/2000/svg" id="build-icon">
        <path fill-rule="evenodd" clip-rule="evenodd" d="M38.5217 25C39.4453 24.1493 40 22.8532 40 21.5C40 19.1649 38.3482 17 36 17H4.00035V17C1.65215 17 0 19.1649 0 21.5C0 22.8532 0.554742 24.1493 1.47828 25C0.554742 25.8507 0 27.1468 0 28.5C0 29.8532 0.554742 31.1493 1.47828 32C0.554742 32.8507 0 34.1468 0 35.5C0 37.8351 1.65179 40 4 40L36 40C38.3482 40 40 37.8351 40 35.5C40 34.1468 39.4453 32.8507 38.5217 32C39.4453 31.1493 40 29.8532 40 28.5C40 27.1468 39.4453 25.8507 38.5217 25ZM4 19C3.03478 19.0007 2 19.9696 2 21.5C2 23.0309 3.0345 24 4 24C4.9655 24 6 23.0309 6 21.5C6 19.9699 4.96661 19.001 4.00155 19L4 19V19ZM7.32446 19C7.75683 19.7332 8 20.6041 8 21.5C8 22.3959 7.75683 23.2668 7.32446 24L36 24L36.002 24C36.9669 23.9987 38 23.0298 38 21.5C38 19.9691 36.9655 19 36 19L7.32446 19ZM36 26L7.32446 26C7.75683 26.7332 8 27.6041 8 28.5C8 29.3959 7.75683 30.2668 7.32446 31L36.0028 31C36.9675 30.9981 38 30.0294 38 28.5C38 26.9691 36.9655 26 36 26ZM3.99815 26C3.03318 26.0012 2 26.9701 2 28.5C2 30.0309 3.0345 31 4 31L4.00166 31C4.96669 30.9989 6 30.03 6 28.5C6 26.9706 4.96756 26.0019 4.00287 26M2 35.5C2 33.9699 3.03342 33.001 3.99849 33L4.00235 33C4.96718 33.0016 6 33.9704 6 35.5C6 37.0309 4.9655 38 4 38C3.0345 38 2 37.0309 2 35.5ZM8 35.5C8 34.604 7.75683 33.7332 7.32446 33L36 33C36.9655 33 38 33.9691 38 35.5C38 37.0309 36.9655 38 36 38L7.32446 38C7.75683 37.2668 8 36.3959 8 35.5Z" fill="#331958"></path>
        <path fill-rule="evenodd" clip-rule="evenodd" d="M16 0C14.3519 0 13.4111 1.88153 14.4 3.2L15.9 5.2C16.2777 5.70361 16.8705 6 17.5 6H19V7.0992C17.2813 7.49588 16 9.03581 16 10.875V11C16 11.4101 16.0617 11.8058 16.1764 12.1784L3.14888 17.0637C2.63176 17.2576 2.36975 17.834 2.56367 18.3511C2.75759 18.8682 3.334 19.1302 3.85112 18.9363L17.2553 13.9098C17.9716 14.5857 18.9374 15 20 15H20.5029C22.4315 15 24.0921 13.6387 24.4703 11.7475L24.4806 11.6961C24.5889 11.1546 24.2377 10.6277 23.6961 10.5194C23.1546 10.4111 22.6277 10.7623 22.5194 11.3039L22.5091 11.3553C22.3179 12.3116 21.4782 13 20.5029 13H20C19.9083 13 19.8181 12.9938 19.7296 12.9819L19.8511 12.9363C20.3682 12.7424 20.6302 12.166 20.4363 11.6489C20.2424 11.1318 19.666 10.8698 19.1489 11.0637L18.0564 11.4734C18.0195 11.3216 18 11.1631 18 11V10.875C18 9.83947 18.8395 9 19.875 9C20.4963 9 21 8.49632 21 7.875V6H22.5C23.1295 6 23.7223 5.70361 24.1 5.2L25.6 3.2C26.5889 1.88153 25.6481 0 24 0H16ZM20 4H22.5L24 2L16 2L17.5 4H20ZM25.6061 14.4191C25.0984 14.2016 24.8633 13.6137 25.0809 13.1061C25.2984 12.5985 25.8863 12.3633 26.3939 12.5809L36.8939 17.0809C37.4016 17.2984 37.6367 17.8863 37.4191 18.3939C37.2016 18.9015 36.6137 19.1367 36.1061 18.9191L25.6061 14.4191Z" fill="#331958"></path>
        <path opacity="0.15" fill-rule="evenodd" clip-rule="evenodd" d="M38 24H9.24964C9.71269 23.3647 10 22.4793 10 21.5C10 21.3302 9.99137 21.1633 9.97468 21H38V24ZM9.24964 31H38V28H9.97468C9.99137 28.1633 10 28.3302 10 28.5C10 29.4793 9.71269 30.3647 9.24964 31ZM9.24964 38H38V35H9.97468C9.99137 35.1633 10 35.3302 10 35.5C10 36.4793 9.71269 37.3647 9.24964 38Z" fill="#509600"></path>
    </symbol>

    <symbol width="40" height="40" viewBox="0 0 40 40" fill="none" xmlns="http://www.w3.org/2000/svg" id="comfort-icon">
        <path fill-rule="evenodd" clip-rule="evenodd" d="M3 0C1.34315 0 0 1.34315 0 3V22C0 23.6569 1.34315 25 3 25C4.65685 25 6 23.6569 6 22V18C6 17.4477 6.44772 17 7 17C7.55228 17 8 17.4477 8 18V25C8 26.6569 9.34315 28 11 28C12.6569 28 14 26.6569 14 25V17C14 15.8954 14.8954 15 16 15H18C18.4934 15 19.2111 14.8602 19.8343 14.4115C20.5085 13.9261 21 13.1259 21 12C21 11.4477 20.5523 11 20 11C19.4477 11 19 11.4477 19 12C19 12.4741 18.8249 12.6739 18.6657 12.7885C18.4555 12.9398 18.1733 13 18 13H16C13.7909 13 12 14.7909 12 17V25C12 25.5523 11.5523 26 11 26C10.4477 26 10 25.5523 10 25V18C10 16.3431 8.65685 15 7 15C5.34315 15 4 16.3431 4 18V22C4 22.5523 3.55228 23 3 23C2.44771 23 2 22.5523 2 22V3C2 2.44772 2.44772 2 3 2H4C4.55228 2 5 1.55228 5 1C5 0.447715 4.55228 0 4 0H3ZM35 3C35 1.34315 33.6569 0 32 0H9C7.34315 0 6 1.34314 6 3L6 7C6 8.65685 7.34315 10 9 10L32 10C33.6569 10 35 8.65686 35 7V6H36C37.1046 6 38 6.89543 38 8V10.1459C38 10.9034 37.572 11.596 36.8944 11.9348L22.2111 19.2764C20.856 19.954 20 21.339 20 22.8541V25H18.9286C17.8635 25 17 25.8635 17 26.9286V36C17 38.2091 18.7909 40 21 40C23.2091 40 25 38.2091 25 36V26.9286C25 25.8635 24.1366 25 23.0714 25H22V22.8541C22 22.0966 22.428 21.404 23.1056 21.0652L37.7889 13.7236C39.144 13.046 40 11.661 40 10.1459V8C40 5.79086 38.2091 4 36 4H35V3ZM33 3V5V7C33 7.55229 32.5523 8 32 8L9 8C8.44772 8 8 7.55228 8 7L8 3C8 2.44771 8.44772 2 9 2L32 2C32.5523 2 33 2.44772 33 3ZM19 36V27H21H23V36C23 37.1046 22.1046 38 21 38C19.8954 38 19 37.1046 19 36Z" fill="#331958"></path>
        <path opacity="0.15" d="M21 31C21 29.8954 21.8954 29 23 29V29V38H21V31Z" fill="#331958"></path>
        <path opacity="0.15" d="M13 4C11.3431 4 10 5.34315 10 7L10 8L33 8L33 4L13 4Z" fill="#331958"></path>
    </symbol>


</svg>